<svg xmlns="http://www.w3.org/2000/svg" viewBox="0 0 24 24" width="24" height="24" color="#000000" fill="none">
    <defs />
    <path fill="#141B34" d="M13.851,2.477 C14.14,2.18 14.615,2.174 14.911,2.462 L15.914,3.438 L15.946,3.469 C16.142,3.66 16.343,3.855 16.479,4.031 C16.601,4.189 16.889,4.605 16.674,5.109 C16.465,5.602 15.976,5.693 15.78,5.72 C15.56,5.75 15.277,5.75 14.999,5.75 L14.955,5.75 L9.194,5.75 C5.616,5.75 2.75,8.567 2.75,12 C2.75,13.324 3.174,14.551 3.899,15.563 C4.14,15.9 4.063,16.368 3.726,16.61 C3.39,16.851 2.921,16.774 2.68,16.437 C1.78,15.181 1.25,13.651 1.25,12 C1.25,7.701 4.826,4.25 9.194,4.25 L14.598,4.25 L13.865,3.538 C13.568,3.249 13.562,2.774 13.851,2.477 Z M22.732,13.664 C21.943,17.177 18.574,19.75 14.806,19.75 L7.402,19.75 L8.134,20.462 C8.431,20.751 8.438,21.226 8.149,21.523 C7.86,21.82 7.385,21.826 7.088,21.538 L6.086,20.562 L6.054,20.531 C5.858,20.34 5.657,20.145 5.521,19.969 C5.399,19.811 5.111,19.395 5.325,18.891 C5.535,18.398 6.023,18.307 6.22,18.28 C6.44,18.25 6.723,18.25 7.001,18.25 L14.806,18.25 C17.926,18.25 20.645,16.113 21.268,13.336 C21.359,12.932 21.76,12.677 22.164,12.768 C22.568,12.859 22.822,13.26 22.732,13.664 Z M22.227,2.4 C22.568,2.61 22.75,2.986 22.75,3.369 L22.75,10 C22.75,10.414 22.414,10.75 22,10.75 C21.586,10.75 21.25,10.414 21.25,10 L21.25,4.343 L20.508,5.026 C20.203,5.306 19.729,5.287 19.448,4.982 C19.168,4.678 19.187,4.203 19.492,3.923 L21.012,2.523 C21.368,2.194 21.858,2.174 22.227,2.4 Z" />
</svg>