<svg xmlns="http://www.w3.org/2000/svg" viewBox="0 0 24 24" width="24" height="24" color="#000000" fill="none">
    <defs />
    <path fill="#141B34" d="M11.943,1.75 L12.057,1.75 C14.248,1.75 15.969,1.75 17.312,1.931 C18.689,2.116 19.781,2.503 20.639,3.361 C21.497,4.219 21.884,5.311 22.069,6.688 C22.25,8.031 22.25,9.752 22.25,11.943 L22.25,12.057 C22.25,14.248 22.25,15.969 22.069,17.312 C21.884,18.689 21.497,19.781 20.639,20.639 C19.781,21.497 18.689,21.884 17.312,22.069 C15.969,22.25 14.248,22.25 12.057,22.25 L11.943,22.25 C9.752,22.25 8.031,22.25 6.688,22.069 C5.311,21.884 4.219,21.497 3.361,20.639 C2.503,19.781 2.116,18.689 1.931,17.312 C1.75,15.969 1.75,14.248 1.75,12.057 L1.75,11.943 C1.75,9.752 1.75,8.031 1.931,6.688 C2.116,5.311 2.503,4.219 3.361,3.361 C4.219,2.503 5.311,2.116 6.688,1.931 C8.031,1.75 9.752,1.75 11.943,1.75 L11.943,1.75 Z M4.422,4.422 C3.889,4.955 3.58,5.678 3.417,6.888 C3.252,8.12 3.25,9.74 3.25,12 C3.25,14.26 3.252,15.88 3.417,17.112 C3.58,18.322 3.889,19.045 4.422,19.578 C4.955,20.111 5.678,20.42 6.888,20.583 C8.12,20.748 9.74,20.75 12,20.75 C14.26,20.75 15.88,20.748 17.112,20.583 C18.322,20.42 19.045,20.111 19.578,19.578 C20.111,19.045 20.42,18.322 20.583,17.112 C20.748,15.88 20.75,14.26 20.75,12 C20.75,9.74 20.748,8.12 20.583,6.888 C20.42,5.678 20.111,4.955 19.578,4.422 C19.045,3.889 18.322,3.58 17.112,3.417 C15.88,3.252 14.26,3.25 12,3.25 C9.74,3.25 8.12,3.252 6.888,3.417 C5.678,3.58 4.955,3.889 4.422,4.422 Z M6.526,9 L6,9 C5.586,9 5.25,8.664 5.25,8.25 C5.25,7.836 5.586,7.5 6,7.5 L6.557,7.5 C7.055,7.5 7.475,7.5 7.825,7.531 C8.197,7.563 8.541,7.633 8.876,7.802 C9.489,8.109 9.884,8.666 10.38,9.365 L10.465,9.485 L13.424,13.646 C14.05,14.526 14.226,14.739 14.463,14.858 C14.569,14.911 14.708,14.952 14.972,14.975 C15.249,14.999 15.604,15 16.141,15 L18,15 C18.293,15 18.559,15.17 18.681,15.437 C18.804,15.703 18.76,16.016 18.569,16.238 L17.069,17.988 C16.8,18.303 16.326,18.339 16.012,18.069 C15.697,17.8 15.661,17.326 15.931,17.012 L16.369,16.5 L16.11,16.5 C15.612,16.5 15.191,16.5 14.841,16.469 C14.47,16.437 14.126,16.367 13.79,16.198 C13.178,15.891 12.782,15.334 12.287,14.635 L12.201,14.515 L9.243,10.354 C8.617,9.475 8.441,9.261 8.204,9.142 C8.097,9.089 7.958,9.048 7.695,9.025 C7.418,9.001 7.063,9 6.526,9 Z M17.069,6.012 L18.569,7.762 C18.76,7.984 18.804,8.297 18.681,8.563 C18.559,8.83 18.293,9 18,9 L16.141,9 C15.604,9 15.249,9.001 14.972,9.025 C14.708,9.048 14.569,9.089 14.463,9.142 C14.226,9.261 14.05,9.475 13.424,10.354 C13.184,10.692 12.715,10.771 12.378,10.531 C12.04,10.291 11.961,9.823 12.201,9.485 L12.287,9.365 C12.782,8.666 13.178,8.109 13.79,7.802 C14.126,7.633 14.47,7.563 14.841,7.531 C15.191,7.5 15.612,7.5 16.11,7.5 L16.369,7.5 L15.931,6.988 C15.661,6.674 15.697,6.2 16.012,5.931 C16.326,5.661 16.8,5.697 17.069,6.012 Z M10.465,14.515 L10.38,14.635 C9.884,15.334 9.489,15.891 8.876,16.198 C8.541,16.367 8.197,16.437 7.825,16.469 C7.475,16.5 7.055,16.5 6.557,16.5 L6,16.5 C5.586,16.5 5.25,16.164 5.25,15.75 C5.25,15.336 5.586,15 6,15 L6.526,15 C7.063,15 7.418,14.999 7.695,14.975 C7.958,14.952 8.097,14.911 8.204,14.858 C8.441,14.739 8.617,14.526 9.243,13.646 C9.483,13.308 9.951,13.229 10.289,13.469 C10.626,13.709 10.705,14.177 10.465,14.515 Z" />
</svg>